<svg xmlns="http://www.w3.org/2000/svg" width="32" height="32" viewBox="0 0 32 32">
  <g id="cib:apple" transform="translate(0 0.299)">
    <rect id="cib:apple-2" data-name="cib:apple" width="32" height="32" transform="translate(0 -0.299)" fill="none"/>
    <path id="Path_1202" data-name="Path 1202" d="M1.924,3.32a1.4,1.4,0,0,1,1.4-1.4H14.483a1.4,1.4,0,0,1,1.4,1.4V21.18a1.4,1.4,0,0,1-1.4,1.4H3.32a1.4,1.4,0,0,1-1.4-1.4ZM3.32.25A3.07,3.07,0,0,0,.25,3.32V21.18a3.07,3.07,0,0,0,3.07,3.07H14.483a3.07,3.07,0,0,0,3.07-3.07V3.32A3.07,3.07,0,0,0,14.483.25Zm6.14,18.7A.558.558,0,1,1,8.9,18.39.558.558,0,0,1,9.459,18.948Zm1.674,0A2.233,2.233,0,1,1,8.9,16.715,2.233,2.233,0,0,1,11.134,18.948Z" transform="translate(6.75 3.451)" fill="#989898" fill-rule="evenodd"/>
  </g>
</svg>
