<svg xmlns="http://www.w3.org/2000/svg" width="27.624" height="20" viewBox="0 0 27.624 20">
  <path id="My_Booking_Icon" data-name="My Booking Icon" d="M27.82,16.027a4.3,4.3,0,0,0-3.12-1.209,7.409,7.409,0,0,0-5.107,2.307,7.446,7.446,0,0,0-2.3,5.062,16.6,16.6,0,0,1-2.055,4.969l-.071-.122a16.048,16.048,0,0,1-2.029-4.847,7.446,7.446,0,0,0-2.3-5.062,7.409,7.409,0,0,0-5.107-2.307,4.3,4.3,0,0,0-3.12,1.209,4.511,4.511,0,0,0-1.152,3.926A7.058,7.058,0,0,0,2.311,22.4a.206.206,0,0,0,.076.132,8.449,8.449,0,0,0,1.329,1.725c.049.049.1.095.148.142h0a7.523,7.523,0,0,0,4.483,2.143,19.823,19.823,0,0,1,5.462,2.154L9.28,33.224a.855.855,0,0,0,0,1.207l.137.137a.855.855,0,0,0,1.207,0l4.6-4.594,4.6,4.595a.854.854,0,0,0,1.207,0l.137-.137a.855.855,0,0,0,0-1.207L16.635,28.7a19.72,19.72,0,0,1,5.454-2.161,7.576,7.576,0,0,0,4.633-2.286,7.714,7.714,0,0,0,2.25-4.3A4.511,4.511,0,0,0,27.82,16.027Zm-.644,6.811h-.246V22.07h.729A7.5,7.5,0,0,1,27.176,22.838Zm-.856,1.014c-.062.062-.125.121-.188.18h-.393v-.769H26.5v.39C26.443,23.72,26.384,23.789,26.32,23.853Zm-8.287-2.977h.389v.768h-.53A5.8,5.8,0,0,1,18.033,20.876Zm1.138-2.38a.211.211,0,0,0,.033.007h.169v.765h-.524v-.292Q19,18.732,19.171,18.5ZM20.232,17.3h.315v.775H19.8v-.337c.065-.07.127-.142.2-.211S20.152,17.375,20.232,17.3Zm.741,7.907v-.748h.768v.748Zm.768.426v.356c-.042,0-.084,0-.126,0h0a4.579,4.579,0,0,1-.642-.048v-.313ZM18.9,24.951c-.017-.017-.031-.037-.047-.054V24.46h.524v.748h-.187A3.473,3.473,0,0,1,18.9,24.951ZM17.86,22.07h.563v.768H17.9A4.7,4.7,0,0,1,17.86,22.07Zm.989,0h.524v.768h-.524V22.07ZM22.936,16.1v.772h-.768V16.1Zm0,1.2v.775h-.768V17.3Zm3.568.775h-.765V17.3H26.5Zm.426-.775h.775v.775h-.775Zm-2.8,1.967h-.768V18.5h.768Zm.426-.766h.756v.765h-.756Zm-.426,1.192v.756h-.768v-.756Zm-1.195-.426h-.768V18.5h.768Zm0,.426v.756h-.768v-.756Zm0,1.182v.768h-.768v-.768Zm-1.195-.426h-.768v-.756h.768Zm0,.426v.768h-.768v-.768Zm0,1.195v.768h-.768V22.07Zm-1.195-.426H19.8v-.768h.748Zm0,.426v.768H19.8V22.07Zm0,1.195v.768H19.8v-.768Zm.426,0h.768v.768h-.768Zm1.195,0h.768v.769h-.768Zm0-.426V22.07h.768v.768Zm1.195-.768h.768v.768h-.768Zm0-.426v-.768h.768v.768Zm1.195-.768h.756v.768h-.756Zm0-.426v-.756h.756v.756Zm1.182-.756H26.5v.756h-.765Zm0-.426V18.5H26.5v.765Zm-.426-1.192h-.756V17.3h.756Zm-1.182,0h-.768V17.3h.768Zm-2.389,0h-.768V17.3h.768Zm0,.426v.765h-.768V18.5Zm-1.195.765H19.8V18.5h.748Zm0,.426v.756H19.8v-.756Zm-1.174.756h-.524v-.756h.524Zm0,.426v.768h-.524v-.768Zm0,2.389v.768h-.524v-.768Zm.426,1.194h.748v.748H19.8Zm2.369,0h.768v.748h-.768Zm1.195,0h.768v.748h-.768Zm0-.426v-.769h.768v.769Zm1.195-.769h.756v.769h-.756Zm0-.426V22.07h.756v.768Zm1.182-.768H26.5v.768h-.765Zm0-.426v-.768H26.5v.768Zm1.192-.768h.775v.768h-.775Zm0-.426v-.756h.775v.756Zm0-1.182V18.5h.775v.765Zm1.2-.766h.281a4.6,4.6,0,0,1,.043.765h-.324V18.5Zm0-.426v-.59a3.758,3.758,0,0,1,.2.59Zm-1.2-1.2V16.1h.1a3.006,3.006,0,0,1,.754.772h-.854ZM26.5,16.1v.772h-.765V16.1Zm-.765-.426V15.51a3.772,3.772,0,0,1,.527.166Zm-.426,1.2h-.756V16.1h.756Zm-1.182,0h-.768V16.1h.768Zm-.768-1.2v-.118a5.723,5.723,0,0,1,.768-.138v.256Zm-1.621.528v.67h-.768v-.18A7.635,7.635,0,0,1,21.742,16.2Zm-3.319,3.577v.668h-.267A6.892,6.892,0,0,1,18.422,19.781Zm0,3.484v.768h-.171a3.749,3.749,0,0,1-.276-.768Zm2.124,2.369v.231a3.739,3.739,0,0,1-.66-.231Zm1.621.329v-.329h.768v.194A5.7,5.7,0,0,1,22.168,25.963Zm1.195-.329h.21q-.1.038-.21.072Zm1.195-.448V24.46h.756v.248A7.554,7.554,0,0,1,24.557,25.186Zm3.575-4.31h.044c-.014.043-.029.087-.044.131Zm0-.426v-.756h.293c-.006.061-.008.119-.017.18-.027.192-.066.384-.112.575h-.164Zm-2.82-5.019v.245h-.756v-.285c.047,0,.1,0,.143,0A4.626,4.626,0,0,1,25.313,15.431ZM14.679,27.322c.092.158.188.322.287.494a.289.289,0,0,0,.065.074.241.241,0,0,0,.022.033l2,2-.685.4-1.857-1.857a.274.274,0,0,0-.028-.019s-.006-.01-.01-.014a.257.257,0,0,0-.03-.02.3.3,0,0,0-.028-.025,19.9,19.9,0,0,0-4.4-1.966A3.972,3.972,0,0,0,12.961,23.6,16.061,16.061,0,0,0,14.679,27.322Zm2.941,3.168-.685.4-.253-.253.685-.4Zm.565.565-.685.4-.253-.253.685-.4Zm.566.566-.685.4-.253-.253.685-.4Zm.565.565-.685.4-.253-.253.685-.4Zm.565.565-.685.4-.253-.253.685-.4Zm.566.565-.685.4-.253-.253.685-.4ZM3.019,16.429a3.369,3.369,0,0,1,.388-.327h.1v.772H2.653A3.333,3.333,0,0,1,3.019,16.429Zm8.569,2.545v.293h-.524V18.5h.169a.255.255,0,0,0,.033-.007Q11.438,18.731,11.588,18.974Zm-9.56.9c-.009-.061-.01-.12-.017-.18H2.3v.756H2.14C2.094,20.258,2.055,20.066,2.028,19.874Zm.7-.18h.775v.756H2.731ZM3.506,17.3v.775H2.731V17.3Zm4.763-1.2v.772H7.5V16.1Zm0,1.2v.775H7.5V17.3Zm4.271,5.538h-.526V22.07h.564A4.639,4.639,0,0,1,12.54,22.839Zm-.952,0h-.524V22.07h.524Zm0,2.058c-.017.018-.03.037-.047.054a3.333,3.333,0,0,1-.289.256h-.187v-.748h.524Zm-.524-.864v-.768h.524v.768ZM9.89,22.07h.748v.768H9.89Zm-.426.768H8.7V22.07h.768v.768Zm.426-1.195v-.768h.748v.768Zm-.426,0H8.7v-.768h.768v.768Zm-1.195,0H7.5v-.768h.768v.768ZM8.7,20.449v-.756h.768v.756Zm-.426,0H7.5v-.756h.768v.756Zm-1.195,0H6.306v-.756h.768ZM7.5,19.267V18.5h.768v.765Zm-.426,0H6.306V18.5h.768Zm-1.195,0H5.125V18.5H5.88Zm-1.182,0H3.933V18.5H4.7Zm0,.426v.756H3.933v-.756Zm.426,0H5.88v.756H5.125v-.756Zm.755,1.182v.768H5.125v-.768Zm.426,0h.768v.768H6.306Zm.768,1.195v.768H6.306V22.07Zm.426,0h.768v.768H7.5Zm.768,1.195v.768H7.5v-.769Zm.426,0h.768v.768H8.7v-.768Zm1.195,0h.748v.768H9.89Zm1.174-1.621v-.768h.524v.768Zm0-1.195v-.756h.524v.756Zm-.426,0H9.89v-.756h.748ZM9.89,19.267V18.5h.748v.765Zm-.426,0H8.7V18.5h.768v.765ZM8.7,18.076V17.3h.768v.775Zm-1.621,0H6.306V17.3h.768Zm-1.195,0H5.125V17.3H5.88Zm-1.182,0H3.933V17.3H4.7ZM3.506,18.5v.765H2.731V18.5Zm0,2.374v.768H2.731v-.768Zm.426,0H4.7v.768H3.933ZM4.7,22.07v.768H3.933V22.07Zm.426,0H5.88v.768H5.125V22.07Zm.755,1.194v.769H5.125v-.769Zm.426,0h.768v.769H6.306Zm.768,1.195v.748H6.306V24.46Zm.426,0h.768v.748H7.5Zm1.195,0h.768v.748H8.7v-.748Zm1.195,0h.748v.748H9.89Zm.661,1.174a3.716,3.716,0,0,1-.66.231v-.231Zm1.636-1.6h-.172v-.768h.446A3.7,3.7,0,0,1,12.186,24.033Zm-.172-2.389v-.768H12.4a5.937,5.937,0,0,1,.128.631c.007.047.007.091.013.137Zm0-1.195v-.672a6.629,6.629,0,0,1,.268.672Zm-1.377-2.374H9.89V17.3h.315c.08.074.159.149.237.227s.13.14.2.21v.338Zm-1.174-1.2H8.7V16.2a7.619,7.619,0,0,1,.768.49v.18Zm-2.389-1.2H6.306v-.256a5.815,5.815,0,0,1,.768.138Zm0,.426v.772H6.306V16.1Zm-1.195.772H5.125V16.1H5.88Zm-1.182,0H3.933V16.1H4.7Zm-.528-1.2a3.851,3.851,0,0,1,.528-.166v.166ZM2.3,17.486v.59h-.2A3.769,3.769,0,0,1,2.3,17.486Zm0,1.016v.765H1.981a4.627,4.627,0,0,1,.043-.765Zm0,2.374v.131c-.015-.043-.03-.087-.044-.131Zm1.2,1.195v.768H3.261a7.545,7.545,0,0,1-.483-.768Zm.426,1.194H4.7v.769H4.306c-.063-.059-.126-.119-.188-.18s-.123-.133-.184-.2v-.39ZM5.125,24.46H5.88v.726a7.546,7.546,0,0,1-.755-.478V24.46Zm1.95,1.174v.072q-.105-.034-.21-.072Zm.426,0h.768v.329a5.715,5.715,0,0,1-.768-.136Zm1.195,0h.768v.313a4.572,4.572,0,0,1-.642.048c-.042,0-.084,0-.126,0v-.356ZM5.88,15.391v.285H5.125v-.245a4.619,4.619,0,0,1,.613-.044C5.785,15.387,5.833,15.39,5.88,15.391Zm7.622,15.5-.685-.4.254-.254.685.4Zm-.565.565-.685-.4L12.5,30.8l.685.4Zm-.565.565-.685-.4.254-.254.685.4Zm-.565.565-.685-.4.254-.253.685.4Zm-.566.566-.685-.4.253-.253.685.4Zm-.565.565-.685-.4.253-.253.685.4Zm-.856.453-.137-.137a.285.285,0,0,1,0-.4l.684.4-.141.141A.286.286,0,0,1,9.819,34.167Zm4.249-3.846-.685-.4.894-.894.54.541Zm6.688,3.708-.137.137a.285.285,0,0,1-.4,0l-.141-.141.684-.4A.285.285,0,0,1,20.755,34.029ZM15.6,27.668l.089-.153a16.586,16.586,0,0,0,1.787-3.909,3.971,3.971,0,0,0,2.944,2.813,19.679,19.679,0,0,0-4.2,1.865Z" transform="translate(-1.407 -14.818)" fill="#696e79"/>
</svg>
